<?xml version="1.0" encoding="UTF-8" standalone="no"?>
<!-- Generator: Adobe Illustrator 16.0.3, SVG Export Plug-In . SVG Version: 6.00 Build 0)  -->

<svg
   xmlns:dc="http://purl.org/dc/elements/1.1/"
   xmlns:cc="http://creativecommons.org/ns#"
   xmlns:rdf="http://www.w3.org/1999/02/22-rdf-syntax-ns#"
   xmlns:svg="http://www.w3.org/2000/svg"
   xmlns="http://www.w3.org/2000/svg"
   xmlns:sodipodi="http://sodipodi.sourceforge.net/DTD/sodipodi-0.dtd"
   xmlns:inkscape="http://www.inkscape.org/namespaces/inkscape"
   version="1.1"
   id="Capa_1"
   x="0px"
   y="0px"
   width="595.28px"
   height="841.89px"
   viewBox="0 0 595.28 841.89"
   enable-background="new 0 0 595.28 841.89"
   xml:space="preserve"
   inkscape:version="0.48.4 r9939"
   sodipodi:docname="logo.svg"><metadata
     id="metadata45"><rdf:RDF><cc:Work
         rdf:about=""><dc:format>image/svg+xml</dc:format><dc:type
           rdf:resource="http://purl.org/dc/dcmitype/StillImage" /></cc:Work></rdf:RDF></metadata><defs
     id="defs43" /><sodipodi:namedview
     pagecolor="#ffffff"
     bordercolor="#666666"
     borderopacity="1"
     objecttolerance="10"
     gridtolerance="10"
     guidetolerance="10"
     inkscape:pageopacity="0"
     inkscape:pageshadow="2"
     inkscape:window-width="1920"
     inkscape:window-height="1025"
     id="namedview41"
     showgrid="false"
     inkscape:zoom="1.1212866"
     inkscape:cx="302.71211"
     inkscape:cy="439.27979"
     inkscape:window-x="-3"
     inkscape:window-y="-3"
     inkscape:window-maximized="1"
     inkscape:current-layer="Capa_1" /><g
     id="Lightbulb"
     transform="matrix(0.9857572,-0.16817474,0.16817474,0.9857572,-59.397253,55.444934)"><g
       id="g4"><g
         id="g6"><path
           d="m 244.785,587.814 116.413,6.906 c 2.741,1.646 5.09,4.982 5.007,7.387 -0.057,1.527 -1.117,3.285 -2.611,4.684 L 245.64,599.795 c -2.325,-1.771 -4.158,-4.633 -4.081,-6.76 0.06,-1.73 1.413,-3.756 3.226,-5.221 z"
           id="path8"
           inkscape:connector-curvature="0"
           style="fill:#030104" /><path
           d="m 245.33,603.762 114.858,6.813 c 3.148,1.34 6.11,5.203 6.018,7.895 -0.064,1.75 -1.451,3.809 -3.299,5.277 l -116.235,-6.893 c -2.788,-1.619 -5.199,-5.021 -5.112,-7.455 0.066,-1.901 1.688,-4.163 3.77,-5.637 z"
           id="path10"
           inkscape:connector-curvature="0"
           style="fill:#030104" /><path
           d="m 154.808,342.394 c -0.127,35.944 12.712,70.703 36.161,97.958 l 0.38,0.465 c 0.333,0.406 33.457,41.275 33.727,88.611 0,0.291 0.026,0.547 0.052,0.736 l -0.029,9.105 c -0.03,8.006 2.97,15.555 8.449,21.25 2.344,2.434 5.023,4.402 7.93,5.869 0.01,5.406 0.015,11.029 -0.021,11.535 -0.163,2.418 1.722,4.623 3.811,5.936 l 118.007,7 c 1.591,-1.092 2.875,-2.646 3,-4.482 0.048,-0.656 0.045,-11.492 0.035,-20.018 9.303,-5.02 15.688,-15.025 15.729,-26.525 l 0.033,-8.959 c 0.021,-0.176 0.042,-0.41 0.042,-0.682 0.617,-47.367 34.207,-88.168 34.545,-88.574 l 1.783,-2.135 -0.04,-0.09 c 22.687,-26.83 35.214,-60.781 35.341,-95.928 0.143,-39.926 -15.27,-77.518 -43.4,-105.851 -28.128,-28.331 -65.605,-44.013 -105.527,-44.155 l -0.549,-0.002 c -39.811,0 -77.271,15.477 -105.48,43.58 -28.217,28.111 -43.835,65.527 -43.979,105.356 z m 129.353,123.422 c 0,5.16 3.437,9.465 8.128,10.893 v 24.748 c -3.617,1.174 -6.899,2.865 -9.294,4.803 -19.506,-63.813 -42.969,-107.931 -52.91,-125.36 0.126,0.005 160.16,-20.592 161.931,-24.569 -10.486,18.426 -48.898,88.244 -66.621,152.662 -2.172,-2.975 -6.685,-5.695 -11.87,-7.402 V 476.71 c 4.687,-1.428 8.132,-5.732 8.132,-10.893 0,-6.316 -5.123,-11.436 -11.439,-11.436 h -14.624 c -6.312,0 -11.433,5.119 -11.433,11.435 z M 163.837,342.426 c 0.278,-77.162 63.275,-139.938 140.431,-139.938 h 0.516 c 37.511,0.134 72.725,14.869 99.154,41.488 26.432,26.622 40.912,61.943 40.776,99.457 -0.12,33.923 -12.54,66.658 -34.97,92.177 l -1.889,2.148 0.12,0.275 c -7.287,9.436 -34.218,47.271 -34.886,91.881 -0.018,0.137 -0.031,0.271 -0.039,0.416 l -0.006,0.227 -0.035,9.242 c -0.041,11.563 -9.133,20.971 -20.27,20.971 v 0.342 h -0.063 l -0.006,-0.342 -25.929,-0.092 v -43.125 c 17.031,-68.502 59.971,-145.177 69.129,-161.082 2.218,-0.415 -170.245,24.349 -168.761,25.113 5.491,9.408 31.574,57.199 52.973,127.384 -0.696,1.09 -1.085,2.209 -1.085,3.324 v 48.213 l -24.699,-0.09 c -5.382,-0.018 -10.442,-2.207 -14.245,-6.16 -3.842,-3.994 -5.947,-9.307 -5.925,-14.955 l 0.03,-9.564 -0.007,-0.137 c -0.011,-0.164 -0.026,-0.318 -0.047,-0.473 -0.357,-44.137 -26.308,-81.609 -33.818,-91.537 l 0.089,-0.15 -2.122,-2.473 c -22.314,-25.68 -34.535,-58.545 -34.416,-92.54 z"
           id="path12"
           inkscape:connector-curvature="0"
           style="fill:#030104" /><path
           d="m 244.94,620.734 116.001,6.881 c 2.852,1.584 5.35,5.055 5.264,7.531 -0.09,2.473 -2.814,5.557 -5.758,6.725 0.923,0.393 1.347,1.203 1.347,2.873 0,4.162 -14.53,16.367 -27.55,24.25 h 0.031 C 330.393,673 324.249,679.412 319.841,683.42 H 287.918 C 283.511,679.412 277.363,673 273.482,668.994 h 0.019 c -11.005,-6.637 -23.08,-16.24 -26.549,-21.707 -0.43,-0.557 -0.729,-1.182 -0.878,-1.846 -0.066,-0.248 -0.112,-0.482 -0.112,-0.697 0,-0.043 0.004,-0.078 0.005,-0.117 -0.005,-0.121 0.003,-0.242 0.01,-0.363 0.004,-0.063 0.009,-0.123 0.015,-0.182 0.011,-0.111 0.016,-0.223 0.036,-0.334 0.066,-0.453 0.188,-0.82 0.364,-1.111 0.374,-0.805 0.995,-1.588 1.938,-2.287 3.659,-2.721 1.82,-4.977 0.459,-5.986 -3.553,-0.697 -7.34,-5.25 -7.23,-8.285 0.062,-1.782 1.489,-3.872 3.381,-5.345 z"
           id="path14"
           inkscape:connector-curvature="0"
           style="fill:#030104" /><path
           d="m 233.904,378.923 c -4.507,-2.416 -0.974,-2.63 -0.974,-2.63 0,0 59.499,-29.091 155.393,-17.023 1.33,-13.304 -0.242,3.232 -0.242,3.232 0,0 -137.448,33.425 -154.177,16.421 z"
           id="path16"
           inkscape:connector-curvature="0"
           style="fill:#ffffff" /></g><circle
         display="none"
         cx="237.274"
         cy="293.72501"
         r="7.2259998"
         id="circle18"
         d="m 244.5,293.72501 c 0,3.99081 -3.23519,7.226 -7.226,7.226 -3.99081,0 -7.226,-3.23519 -7.226,-7.226 0,-3.99081 3.23519,-7.226 7.226,-7.226 3.99081,0 7.226,3.23519 7.226,7.226 z"
         sodipodi:cx="237.274"
         sodipodi:cy="293.72501"
         sodipodi:rx="7.2259998"
         sodipodi:ry="7.2259998"
         style="fill:#030104;display:none" /></g><g
       id="genius_-_outlined"><path
         d="m 225.466,345.849 c -2.187,-1.211 -3.827,-2.784 -4.919,-4.719 -1.094,-1.934 -1.64,-4.246 -1.64,-6.938 0,-4.911 1.748,-9.292 5.248,-13.145 3.499,-3.853 7.451,-5.779 11.858,-5.779 1.379,0 2.666,0.221 3.861,0.657 1.194,0.437 2.278,1.11 3.255,2.018 2.253,-1.85 4.121,-2.775 5.601,-2.775 1.211,0 2.203,0.346 2.978,1.036 0.772,0.689 1.16,1.556 1.16,2.599 0,1.613 -0.774,2.421 -2.322,2.421 -0.875,0 -1.733,-0.571 -2.573,-1.716 -0.539,-0.738 -1.077,-1.11 -1.615,-1.11 -0.572,0 -1.16,0.422 -1.766,1.262 1.345,2.221 2.018,4.862 2.018,7.923 0,5.82 -1.699,10.413 -5.097,13.776 -3.431,3.365 -7.604,5.366 -12.515,6.005 -7.301,0.942 -10.95,2.895 -10.95,5.854 0,0.942 0.419,1.716 1.261,2.321 0.84,0.605 2.606,1.194 5.299,1.767 4.676,1.043 8.493,1.984 11.455,2.826 2.959,0.84 5.154,2.076 6.584,3.709 1.431,1.632 2.145,3.558 2.145,5.777 0,3.432 -1.75,6.442 -5.248,9.033 -3.499,2.59 -8.478,3.886 -14.936,3.886 -6.09,0 -10.833,-0.993 -14.231,-2.978 -3.398,-1.986 -5.097,-4.458 -5.097,-7.418 0,-2.188 0.825,-4.028 2.473,-5.525 1.649,-1.497 3.062,-2.246 4.239,-2.246 1.177,0 1.766,0.437 1.766,1.312 0,0.472 -0.404,1.127 -1.211,1.969 -1.379,1.48 -2.069,2.927 -2.069,4.34 0,2.187 1.111,4.121 3.331,5.803 2.221,1.683 5.619,2.523 10.193,2.523 4.911,0 8.637,-0.841 11.178,-2.523 2.54,-1.682 3.81,-3.65 3.81,-5.904 0,-1.783 -0.892,-3.229 -2.674,-4.339 -1.784,-1.11 -5.653,-2.355 -11.606,-3.735 -5.181,-1.21 -8.394,-2.472 -9.638,-3.784 -1.28,-1.278 -1.917,-2.674 -1.917,-4.188 0,-2.119 1.075,-4.129 3.229,-6.03 2.151,-1.904 5.179,-3.225 9.082,-3.965 z m -1.06,-7.115 c 0,1.885 0.529,3.398 1.589,4.541 1.061,1.146 2.38,1.717 3.962,1.717 1.85,0 3.507,-0.74 4.971,-2.221 1.462,-1.479 2.893,-4.222 4.289,-8.226 1.396,-4.003 2.095,-7.418 2.095,-10.244 0,-2.32 -0.413,-4.063 -1.236,-5.223 -0.826,-1.16 -2.062,-1.74 -3.71,-1.74 -2.96,0 -5.694,2.447 -8.199,7.342 -2.508,4.895 -3.761,9.579 -3.761,14.054 z"
         id="path21"
         inkscape:connector-curvature="0"
         style="fill:#030104" /><path
         d="m 271.554,345.092 h 2.421 c -4.271,9.521 -9.755,14.281 -16.449,14.281 -2.759,0 -5.005,-0.968 -6.738,-2.902 -1.732,-1.934 -2.598,-4.55 -2.598,-7.847 0,-4.171 1.118,-8.881 3.356,-14.129 2.237,-5.248 5.416,-9.773 9.537,-13.575 4.12,-3.801 7.712,-5.702 10.774,-5.702 1.883,0 3.313,0.598 4.29,1.792 0.975,1.194 1.463,2.683 1.463,4.465 0,3.634 -1.817,7.124 -5.45,10.472 -3.633,3.348 -9.083,6.569 -16.35,9.664 -0.942,2.927 -1.413,5.702 -1.413,8.325 0,2.153 0.42,3.769 1.262,4.845 0.84,1.077 2.085,1.615 3.733,1.615 4.609,0 8.664,-3.767 12.162,-11.304 z m -14.987,-6.055 c 4.34,-1.951 8.242,-4.643 11.707,-8.074 3.465,-3.432 5.198,-6.542 5.198,-9.335 0,-1.278 -0.261,-2.229 -0.782,-2.852 -0.522,-0.622 -1.304,-0.933 -2.347,-0.933 -2.019,0 -4.399,1.959 -7.141,5.878 -2.742,3.92 -4.954,9.026 -6.635,15.316 z"
         id="path23"
         inkscape:connector-curvature="0"
         style="fill:#030104" /><path
         d="m 313.504,348.474 h 2.573 c -2.018,3.633 -4.079,6.357 -6.182,8.174 -2.103,1.817 -4.247,2.726 -6.433,2.726 -1.514,0 -2.818,-0.463 -3.912,-1.389 -1.092,-0.924 -1.64,-2.296 -1.64,-4.112 0,-1.515 0.773,-4.508 2.322,-8.982 l 5.399,-15.391 c 1.445,-4.205 2.169,-6.931 2.169,-8.175 0,-1.11 -0.243,-1.935 -0.731,-2.473 -0.488,-0.537 -1.236,-0.809 -2.244,-0.809 -2.559,0 -5.898,3.004 -10.019,9.009 -4.121,6.004 -7.662,13.868 -10.622,23.591 l -2.473,8.074 h -6.156 l 8.882,-28.663 c 1.614,-5.281 2.422,-8.31 2.422,-9.083 0,-0.571 -0.101,-0.992 -0.303,-1.262 -0.202,-0.269 -0.522,-0.403 -0.959,-0.403 -1.985,0 -4.34,2.456 -7.064,7.367 h -2.321 c 4.205,-7.636 8.191,-11.455 11.96,-11.455 1.312,0 2.295,0.396 2.951,1.186 0.656,0.791 0.984,1.993 0.984,3.608 0,2.894 -1.127,7.368 -3.381,13.423 6.089,-12.144 12.009,-18.217 17.764,-18.217 1.849,0 3.464,0.614 4.843,1.842 1.379,1.229 2.07,3.021 2.07,5.374 0,1.515 -0.691,4.341 -2.07,8.478 l -5.398,16.098 c -1.447,4.34 -2.171,6.762 -2.171,7.267 0,0.64 0.16,1.119 0.479,1.439 0.319,0.319 0.782,0.479 1.389,0.479 1.143,0 2.371,-0.647 3.685,-1.942 1.311,-1.296 2.706,-3.222 4.187,-5.779 z"
         id="path25"
         inkscape:connector-curvature="0"
         style="fill:#030104" /><path
         d="m 335.825,346.91 h 2.421 c -1.581,3.262 -3.642,6.156 -6.181,8.679 -2.54,2.522 -4.988,3.785 -7.343,3.785 -1.581,0 -2.969,-0.563 -4.162,-1.691 -1.195,-1.127 -1.791,-2.783 -1.791,-4.97 0,-1.782 0.94,-5.198 2.824,-10.244 l 5.805,-15.392 c 1.345,-3.599 2.018,-5.785 2.018,-6.56 0,-0.673 -0.16,-1.178 -0.479,-1.515 -0.319,-0.335 -0.799,-0.504 -1.438,-0.504 -1.312,0 -2.868,1.018 -4.669,3.053 -1.799,2.036 -3.07,3.878 -3.81,5.525 h -2.42 c 1.848,-3.666 3.961,-6.56 6.332,-8.68 2.372,-2.118 4.584,-3.179 6.637,-3.179 1.58,0 2.877,0.539 3.885,1.615 1.01,1.077 1.514,2.489 1.514,4.238 0,1.783 -0.891,5.046 -2.674,9.789 l -4.844,13.121 c -1.784,4.743 -2.675,7.722 -2.675,8.932 0,0.977 0.192,1.708 0.581,2.195 0.385,0.488 0.948,0.731 1.688,0.731 2.49,0.002 5.417,-2.975 8.781,-8.928 z m -3.735,-53.946 c 0,-1.211 0.43,-2.245 1.289,-3.104 0.856,-0.857 1.891,-1.287 3.102,-1.287 1.212,0 2.245,0.43 3.104,1.287 0.857,0.858 1.287,1.893 1.287,3.104 0,1.211 -0.43,2.255 -1.287,3.129 -0.858,0.875 -1.892,1.312 -3.104,1.312 -1.244,0 -2.288,-0.445 -3.129,-1.337 -0.84,-0.891 -1.262,-1.925 -1.262,-3.104 z"
         id="path27"
         inkscape:connector-curvature="0"
         style="fill:#030104" /><path
         d="m 375.556,347.564 h 2.12 c -2.86,7.873 -6.73,11.81 -11.608,11.81 -1.647,0 -2.884,-0.455 -3.708,-1.362 -0.825,-0.909 -1.236,-2.271 -1.236,-4.088 0,-2.557 0.908,-6.644 2.725,-12.262 -5.887,11.808 -11.706,17.712 -17.46,17.712 -2.118,0 -3.784,-0.656 -4.995,-1.969 -1.211,-1.312 -1.816,-2.943 -1.816,-4.895 0,-1.918 0.756,-5.097 2.27,-9.537 l 6.208,-18.116 c 0.907,-2.691 1.362,-4.306 1.362,-4.845 0,-0.874 -0.438,-1.312 -1.313,-1.312 -2.119,0 -4.439,2.843 -6.963,8.528 h -2.423 c 1.346,-3.532 3.111,-6.417 5.299,-8.654 2.187,-2.237 4.339,-3.356 6.459,-3.356 1.312,0 2.431,0.412 3.356,1.236 0.924,0.825 1.387,2.061 1.387,3.71 0,1.177 -0.59,3.532 -1.766,7.064 l -6.357,18.671 c -1.212,3.633 -1.817,6.021 -1.817,7.166 0,1.042 0.235,1.833 0.706,2.371 0.471,0.538 1.161,0.808 2.069,0.808 2.96,0 6.476,-3.146 10.547,-9.437 4.07,-6.291 7.972,-15.644 11.708,-28.057 l 0.857,-2.877 h 6.055 l -8.83,28.966 c -1.414,4.71 -2.119,7.553 -2.119,8.527 0,0.842 0.168,1.473 0.504,1.894 0.336,0.421 0.84,0.63 1.514,0.63 2.555,0.001 4.977,-2.773 7.265,-8.326 z"
         id="path29"
         inkscape:connector-curvature="0"
         style="fill:#030104" /><path
         d="m 401.105,346.859 c 0,3.128 -1.203,5.997 -3.607,8.604 -2.406,2.606 -5.947,3.911 -10.623,3.911 -3.465,0 -6.063,-0.767 -7.796,-2.296 -1.733,-1.531 -2.599,-3.171 -2.599,-4.92 0,-0.941 0.26,-1.75 0.781,-2.423 0.521,-0.673 1.187,-1.01 1.993,-1.01 1.817,0 2.726,0.96 2.726,2.877 0,0.438 -0.102,1.059 -0.304,1.867 -0.134,0.37 -0.201,0.656 -0.201,0.857 0,0.808 0.521,1.506 1.564,2.094 1.042,0.59 2.288,0.884 3.734,0.884 2.253,0 4.306,-0.714 6.156,-2.145 1.851,-1.43 2.776,-3.406 2.776,-5.929 0,-2.188 -1.297,-5.635 -3.887,-10.346 -3.029,-5.45 -4.541,-9.438 -4.541,-11.959 0,-3.229 1.277,-5.955 3.834,-8.175 2.557,-2.221 5.467,-3.331 8.73,-3.331 2.389,0 4.432,0.605 6.132,1.816 1.696,1.211 2.547,2.506 2.547,3.886 0,1.783 -0.739,2.674 -2.22,2.674 -1.111,0 -1.918,-0.992 -2.422,-2.977 -0.539,-2.187 -2.002,-3.28 -4.391,-3.28 -1.918,0 -3.582,0.521 -4.996,1.564 -1.412,1.043 -2.119,2.405 -2.119,4.087 0,2.289 1.127,5.434 3.382,9.438 2.118,3.633 3.54,6.408 4.264,8.325 0.726,1.92 1.087,3.888 1.087,5.907 z"
         id="path31"
         inkscape:connector-curvature="0"
         style="fill:#030104" /></g><path
       d="m 103.399,141.876 c 0,0 56.809,65.005 65.888,55.765 0,0 13.338,-9.401 -65.888,-55.765 z"
       id="path33"
       inkscape:connector-curvature="0"
       style="fill:#030104" /><path
       d="m 234.24,73.37 c 0,0 5.749,86.138 18.571,84.297 0,0 16.307,0.614 -18.571,-84.297 z"
       id="path35"
       inkscape:connector-curvature="0"
       style="fill:#030104" /><path
       d="m 374.498,75.804 c 0,0 -42.1,75.369 -30.343,80.809 0,0 13.342,9.399 30.343,-80.809 z"
       id="path37"
       inkscape:connector-curvature="0"
       style="fill:#030104" /><path
       d="m 491.881,122.069 c 0,0 -73.874,44.673 -66.349,55.217 0,0 6.947,14.766 66.349,-55.217 z"
       id="path39"
       inkscape:connector-curvature="0"
       style="fill:#030104" /></g></svg>