<?xml version="1.0" encoding="utf-8"?>
<!-- Generator: Adobe Illustrator 16.0.4, SVG Export Plug-In . SVG Version: 6.00 Build 0)  -->
<!DOCTYPE svg PUBLIC "-//W3C//DTD SVG 1.1//EN" "http://www.w3.org/Graphics/SVG/1.1/DTD/svg11.dtd">
<svg version="1.1" xmlns="http://www.w3.org/2000/svg" xmlns:xlink="http://www.w3.org/1999/xlink" x="0px" y="0px" width="780px"
	 height="220px" viewBox="0 0 780 220" enable-background="new 0 0 780 220" xml:space="preserve">
<g id="Car_Care">
	<g>
		<path fill="#D92026" d="M94.1,158.6c-1.6,27-12.4,51.8-44.1,51.8c-41.2,0-46.7-38.2-46.7-74.2c0-36,6.7-74.2,46.7-74.2
			c29.6,0,42,16.4,42.8,44.4H74.2c-0.4-16.2-5.7-30-24.2-30c-24.8,0-28,26.8-28,59.8c0,33,3.2,59.8,28,59.8
			c21.7,0,24.8-20,25.4-37.4H94.1z"/>
		<path fill="#D92026" d="M142.2,64.8h24l39,142.8h-18.7l-10.4-39.2h-46.3l-10.8,39.2h-18.7L142.2,64.8z M133.5,154h39L154,85h-0.4
			L133.5,154z"/>
		<path fill="#D92026" d="M218.4,64.8h46.9c22.7,0,37.2,13.2,37.2,35.8c0,15.6-5.5,32-22.3,36v0.4c12.6,1.4,19.7,11.6,20.5,23.8
			l1.2,24.4c0.8,15.8,3.5,19.8,7.7,22.4H288c-3-3-4.5-13.6-4.9-20.6l-1.2-22.2c-1.4-19.6-12.4-20.8-21.5-20.8h-24.2v63.6h-17.9V64.8
			z M236.2,129.6h17.7c10.6,0,29.8,0,29.8-27.6c0-14-9.5-22.8-26.2-22.8h-21.3V129.6z"/>
		<path fill="#D92026" d="M467.3,158.6c-1.6,27-12.4,51.8-44.1,51.8c-41.2,0-46.7-38.2-46.7-74.2c0-36,6.7-74.2,46.7-74.2
			c29.6,0,42,16.4,42.8,44.4h-18.7c-0.4-16.2-5.7-30-24.2-30c-24.8,0-28,26.8-28,59.8c0,33,3.2,59.8,28,59.8
			c21.7,0,24.8-20,25.4-37.4H467.3z"/>
		<path fill="#D92026" d="M515.4,64.8h24l39,142.8h-18.7l-10.4-39.2H503l-10.8,39.2h-18.7L515.4,64.8z M506.7,154h39l-18.5-69h-0.4
			L506.7,154z"/>
		<path fill="#D92026" d="M591.5,64.8h46.9c22.7,0,37.2,13.2,37.2,35.8c0,15.6-5.5,32-22.3,36v0.4c12.6,1.4,19.7,11.6,20.5,23.8
			l1.2,24.4c0.8,15.8,3.5,19.8,7.7,22.4h-21.5c-3-3-4.5-13.6-4.9-20.6l-1.2-22.2c-1.4-19.6-12.4-20.8-21.5-20.8h-24.2v63.6h-17.9
			V64.8z M609.4,129.6h17.7c10.6,0,29.8,0,29.8-27.6c0-14-9.5-22.8-26.2-22.8h-21.3V129.6z"/>
		<path fill="#D92026" d="M700,64.8h74.9v15.6h-57.1v44.8h53.8v15.6h-53.8V192h59.5v15.6H700V64.8z"/>
	</g>
</g>
<g id="SMART_x21_">
	<g>
		<path d="M19.8,35.1l-0.3,1.2c-0.8,3.8-0.2,6.2,4.1,6.2c2.5,0,5.2-1.6,6-4.9c0.8-3.6-0.8-5-5.8-6.8c-6.7-2.5-9.5-5.4-8-12.1
			c1.7-7.8,7.4-11.8,15.1-11.8c7.3,0,11.9,3.1,10.2,10.8l-0.2,1.1H33c0.8-3.8,0-5.9-3.2-5.9c-3.7,0-5.2,2.3-5.7,4.6
			c-0.5,2.5-0.1,4,3,5.4l5.7,2.7c5.6,2.6,6.5,5.7,5.4,10.6c-1.8,8.5-7.9,12.3-16.7,12.3c-9.3,0-12-4.3-10.4-11.6l0.4-1.6H19.8z"/>
		<path d="M51.6,7.6h12.2l-0.3,28.2h0.1L75.5,7.6h12.1l-8.6,40h-7.5l6.9-31.9h-0.1L64.2,47.6h-6.4l-0.3-31.9h-0.1l-6.9,31.9H43
			L51.6,7.6z"/>
		<path d="M104.3,7.6h10.1l2.1,40H108l-0.1-8.5H97.1l-3.7,8.5h-8.5L104.3,7.6z M100,32.5h8l0-18h-0.1L100,32.5z"/>
		<path d="M130.8,7.6h15.1c6.7,0,10.1,3.5,8.6,10.3c-1.1,5.3-4.1,8.9-8.9,9.9l0,0.1c5.4,0.7,5.6,3.8,3.9,12.2
			c-0.8,4.2-1.1,6.4,0.3,7.2l-0.1,0.3h-8.9c-0.6-1.1-0.4-2.6-0.1-4.2l1.4-7.7c0.6-3.1-0.4-5-3.7-5H134l-3.6,16.9h-8.2L130.8,7.6z
			 M135.2,25.1h3.4c3.9,0,6.5-1.7,7.4-6c0.8-3.7-0.8-5.5-4.5-5.5h-3.9L135.2,25.1z"/>
		<path d="M188,7.6l-1.4,6.6h-8.9l-7.2,33.4h-8.2l7.2-33.4h-8.9l1.4-6.6H188z"/>
		<path d="M196.8,40.2l-1.6,7.4h-7.8l1.6-7.4H196.8z M190.9,36.4l2.3-15.8l2.8-13h7.8l-2.8,13l-4.5,15.8H190.9z"/>
	</g>
</g>
</svg>
