<?xml version="1.0" encoding="utf-8"?>
<!-- Generator: Adobe Illustrator 16.0.4, SVG Export Plug-In . SVG Version: 6.00 Build 0)  -->
<!DOCTYPE svg PUBLIC "-//W3C//DTD SVG 1.1//EN" "http://www.w3.org/Graphics/SVG/1.1/DTD/svg11.dtd">
<svg version="1.1" xmlns="http://www.w3.org/2000/svg" xmlns:xlink="http://www.w3.org/1999/xlink" x="0px" y="0px" width="57.6px"
	 height="68.4px" viewBox="0 0 57.6 68.4" enable-background="new 0 0 57.6 68.4" xml:space="preserve">
<g id="bulb">
	<g id="Lightbulb">
		<g>
			<g>
				<path fill="#010101" d="M26,57l12.4-0.7c0.3,0.1,0.6,0.5,0.6,0.7c0,0.2-0.1,0.4-0.2,0.5l-12.6,0.7c-0.3-0.2-0.5-0.4-0.5-0.7
					C25.7,57.4,25.8,57.2,26,57z"/>
				<path fill="#010101" d="M26.2,58.7L38.5,58c0.4,0.1,0.7,0.5,0.7,0.8c0,0.2-0.1,0.4-0.3,0.6l-12.4,0.7c-0.3-0.1-0.6-0.5-0.6-0.7
					C25.9,59.1,26,58.9,26.2,58.7z"/>
				<path fill="#010101" d="M13.4,32.1c0.4,3.8,2.2,7.3,5,10l0,0c0,0,4,4,4.6,9c0,0,0,0.1,0,0.1l0.1,1c0.1,0.8,0.5,1.6,1.2,2.2
					c0.3,0.2,0.6,0.4,0.9,0.5c0.1,0.6,0.1,1.2,0.1,1.2c0,0.3,0.2,0.5,0.5,0.6l12.6-0.7c0.2-0.1,0.3-0.3,0.3-0.5
					c0-0.1-0.1-1.2-0.2-2.1c0.9-0.6,1.5-1.8,1.3-3l-0.1-1c0,0,0,0,0-0.1c-0.5-5,2.6-9.8,2.6-9.8l0.2-0.2l0,0c2.1-3.1,3-6.9,2.6-10.6
					c-0.5-4.2-2.6-8-5.9-10.7c-3.3-2.7-7.5-3.9-11.7-3.4l-0.1,0c-4.2,0.5-8,2.6-10.7,5.9C14.2,23.7,13,27.8,13.4,32.1z M28.7,43.6
					c0.1,0.5,0.5,1,1,1.1l0.3,2.6c-0.4,0.2-0.7,0.4-0.9,0.6c-2.8-6.5-5.9-10.9-7.1-12.7c0,0,16.7-4.1,16.9-4.6
					c-0.9,2.1-4.1,10-5.2,17c-0.3-0.3-0.8-0.5-1.3-0.6l-0.3-2.6c0.5-0.2,0.8-0.7,0.7-1.3c-0.1-0.7-0.7-1.2-1.4-1.1l-1.6,0.2
					C29.1,42.3,28.6,42.9,28.7,43.6z M14.4,32c-0.9-8.2,5-15.6,13.2-16.5l0.1,0c4-0.4,7.9,0.7,11,3.2c3.1,2.5,5.1,6.1,5.5,10.1
					c0.4,3.6-0.5,7.2-2.6,10.2l-0.2,0.3l0,0c-0.7,1.1-3.1,5.4-2.6,10.2c0,0,0,0,0,0l0,0l0.1,1c0.1,1.2-0.7,2.3-1.9,2.5l0,0h0l0,0
					l-2.8,0.3l-0.5-4.6c1-7.5,4.6-16.1,5.4-17.9c0.2-0.1-17.8,4.6-17.6,4.7c0.7,0.9,4,5.7,7.2,12.9c-0.1,0.1-0.1,0.2-0.1,0.4
					l0.6,5.1L26.6,54c-0.6,0.1-1.1-0.1-1.6-0.5c-0.5-0.4-0.7-0.9-0.8-1.5l-0.1-1l0,0c0,0,0,0,0,0c-0.6-4.7-3.8-8.3-4.7-9.3l0,0
					l-0.3-0.2C16.5,38.9,14.8,35.6,14.4,32z"/>
				<path fill="#010101" d="M26.4,60.5l12.4-0.7c0.3,0.1,0.6,0.5,0.7,0.7c0,0.3-0.2,0.6-0.5,0.8c0.1,0,0.2,0.1,0.2,0.3
					c0,0.4-1.3,1.9-2.6,2.9h0c-0.4,0.5-0.9,1.2-1.4,1.7l-3.4,0.4c-0.5-0.4-1.2-1-1.7-1.4h0c-1.2-0.6-2.6-1.4-3.1-2
					c-0.1-0.1-0.1-0.1-0.1-0.2c0,0,0-0.1,0-0.1c0,0,0,0,0,0c0,0,0,0,0,0c0,0,0,0,0,0c0,0,0,0,0,0c0,0,0-0.1,0-0.1
					c0-0.1,0.1-0.2,0.2-0.3c0.4-0.3,0.1-0.6,0-0.6c-0.4,0-0.8-0.5-0.9-0.8C26.1,60.9,26.2,60.7,26.4,60.5z"/>
				<path fill="#FFFFFF" d="M22.3,35c-0.5-0.2-0.1-0.3-0.1-0.3s6-3.8,16.3-3.7c0-1.4,0,0.3,0,0.3S24.3,36.6,22.3,35z"/>
			</g>
			<circle display="none" fill="#010101" cx="21.6" cy="25.9" r="0.8"/>
		</g>
		<g id="genius_-_outlined">
			<path fill="#010101" d="M21,31.6c-0.2-0.1-0.4-0.2-0.6-0.4c-0.1-0.2-0.2-0.4-0.3-0.7c-0.1-0.5,0.1-1,0.4-1.5
				c0.3-0.5,0.7-0.7,1.2-0.8c0.1,0,0.3,0,0.4,0c0.1,0,0.3,0.1,0.4,0.2c0.2-0.2,0.4-0.3,0.6-0.4c0.1,0,0.2,0,0.3,0.1
				c0.1,0.1,0.1,0.2,0.2,0.3c0,0.2-0.1,0.3-0.2,0.3c-0.1,0-0.2,0-0.3-0.2c-0.1-0.1-0.1-0.1-0.2-0.1c-0.1,0-0.1,0.1-0.2,0.2
				c0.2,0.2,0.3,0.5,0.3,0.8c0.1,0.6-0.1,1.1-0.4,1.5c-0.3,0.4-0.7,0.7-1.3,0.8c-0.8,0.2-1.1,0.4-1.1,0.8c0,0.1,0.1,0.2,0.2,0.2
				c0.1,0.1,0.3,0.1,0.6,0.1c0.5,0.1,0.9,0.1,1.3,0.2c0.3,0.1,0.6,0.2,0.7,0.3c0.2,0.2,0.3,0.4,0.3,0.6c0,0.4-0.1,0.7-0.4,1
				c-0.3,0.3-0.9,0.5-1.5,0.6c-0.6,0.1-1.2,0-1.5-0.1c-0.4-0.2-0.6-0.4-0.6-0.7c0-0.2,0-0.4,0.2-0.6c0.2-0.2,0.3-0.3,0.4-0.3
				c0.1,0,0.2,0,0.2,0.1c0,0.1,0,0.1-0.1,0.2c-0.1,0.2-0.2,0.3-0.2,0.5c0,0.2,0.2,0.4,0.4,0.6c0.3,0.2,0.6,0.2,1.1,0.1
				c0.5-0.1,0.9-0.2,1.2-0.4c0.2-0.2,0.4-0.4,0.3-0.7c0-0.2-0.1-0.3-0.3-0.4c-0.2-0.1-0.6-0.2-1.3-0.3c-0.6-0.1-0.9-0.2-1.1-0.3
				c-0.2-0.1-0.2-0.3-0.3-0.4c0-0.2,0.1-0.5,0.3-0.7C20.3,31.9,20.6,31.7,21,31.6z M20.8,30.8c0,0.2,0.1,0.4,0.2,0.5
				c0.1,0.1,0.3,0.2,0.4,0.1c0.2,0,0.4-0.1,0.5-0.3c0.1-0.2,0.3-0.5,0.4-0.9c0.1-0.4,0.1-0.8,0.1-1.1c0-0.2-0.1-0.4-0.2-0.5
				c-0.1-0.1-0.2-0.2-0.4-0.1c-0.3,0-0.6,0.3-0.8,0.9C20.8,29.8,20.7,30.4,20.8,30.8z"/>
			<path fill="#010101" d="M25.9,30.9l0.3,0c-0.3,1.1-0.9,1.6-1.6,1.7c-0.3,0-0.5,0-0.8-0.2c-0.2-0.2-0.3-0.5-0.4-0.8
				c-0.1-0.4,0-1,0.2-1.5c0.2-0.6,0.5-1.1,0.8-1.6c0.4-0.5,0.7-0.7,1.1-0.7c0.2,0,0.4,0,0.5,0.1c0.1,0.1,0.2,0.3,0.2,0.5
				c0,0.4-0.1,0.8-0.5,1.2c-0.3,0.4-0.9,0.8-1.6,1.2c-0.1,0.3-0.1,0.6,0,0.9c0,0.2,0.1,0.4,0.2,0.5c0.1,0.1,0.2,0.1,0.4,0.1
				C25.2,32.2,25.6,31.8,25.9,30.9z M24.2,30.5c0.4-0.3,0.8-0.6,1.1-1c0.3-0.4,0.5-0.8,0.4-1.1c0-0.1-0.1-0.2-0.1-0.3
				c-0.1-0.1-0.1-0.1-0.3-0.1c-0.2,0-0.4,0.3-0.7,0.7C24.5,29.2,24.3,29.8,24.2,30.5z"/>
			<path fill="#010101" d="M30.4,30.8l0.3,0c-0.2,0.4-0.4,0.7-0.6,0.9c-0.2,0.2-0.4,0.3-0.6,0.4c-0.2,0-0.3,0-0.4-0.1
				c-0.1-0.1-0.2-0.2-0.2-0.4c0-0.2,0-0.5,0.1-1l0.4-1.7c0.1-0.5,0.1-0.8,0.1-0.9c0-0.1,0-0.2-0.1-0.3c-0.1-0.1-0.1-0.1-0.2-0.1
				c-0.3,0-0.6,0.4-1,1.1c-0.4,0.7-0.6,1.6-0.8,2.6l-0.2,0.9l-0.7,0.1l0.6-3.1c0.1-0.6,0.2-0.9,0.1-1c0-0.1,0-0.1,0-0.1
				s-0.1,0-0.1,0c-0.2,0-0.4,0.3-0.7,0.9l-0.2,0c0.4-0.9,0.7-1.3,1.1-1.4c0.1,0,0.2,0,0.3,0.1c0.1,0.1,0.1,0.2,0.1,0.4
				c0,0.3,0,0.8-0.2,1.5c0.5-1.4,1.1-2.1,1.7-2.1c0.2,0,0.4,0,0.5,0.1c0.2,0.1,0.3,0.3,0.3,0.5c0,0.2,0,0.5-0.1,0.9l-0.4,1.8
				c-0.1,0.5-0.1,0.7-0.1,0.8c0,0.1,0,0.1,0.1,0.1c0,0,0.1,0,0.2,0c0.1,0,0.2-0.1,0.4-0.2C30.1,31.3,30.2,31.1,30.4,30.8z"/>
			<path fill="#010101" d="M32.7,30.4l0.3,0c-0.1,0.4-0.3,0.7-0.6,1c-0.2,0.3-0.5,0.5-0.7,0.5c-0.2,0-0.3,0-0.5-0.1
				c-0.1-0.1-0.2-0.3-0.3-0.5c0-0.2,0-0.6,0.2-1.1l0.4-1.7c0.1-0.4,0.1-0.6,0.1-0.7c0-0.1,0-0.1-0.1-0.2c0,0-0.1,0-0.2,0
				c-0.1,0-0.3,0.1-0.5,0.4c-0.2,0.2-0.3,0.4-0.3,0.6l-0.3,0c0.2-0.4,0.3-0.7,0.6-1c0.2-0.3,0.4-0.4,0.7-0.4c0.2,0,0.3,0,0.4,0.1
				c0.1,0.1,0.2,0.2,0.2,0.4c0,0.2,0,0.5-0.2,1.1l-0.4,1.5c-0.1,0.5-0.2,0.9-0.2,1c0,0.1,0,0.2,0.1,0.2c0,0,0.1,0.1,0.2,0.1
				C32.1,31.4,32.4,31,32.7,30.4z M31.7,24.7c0-0.1,0-0.2,0.1-0.3c0.1-0.1,0.2-0.2,0.3-0.2c0.1,0,0.2,0,0.3,0.1
				c0.1,0.1,0.2,0.2,0.2,0.3c0,0.1,0,0.2-0.1,0.3c-0.1,0.1-0.2,0.2-0.3,0.2c-0.1,0-0.2,0-0.3-0.1C31.7,24.9,31.7,24.8,31.7,24.7z"/>
			<path fill="#010101" d="M36.9,29.9l0.2,0c-0.2,0.9-0.6,1.3-1.1,1.4c-0.2,0-0.3,0-0.4-0.1c-0.1-0.1-0.2-0.2-0.2-0.4
				c0-0.3,0-0.7,0.1-1.3c-0.5,1.3-1,2-1.6,2.1c-0.2,0-0.4,0-0.6-0.1c-0.1-0.1-0.2-0.3-0.3-0.5c0-0.2,0-0.5,0.1-1l0.4-2
				c0.1-0.3,0.1-0.5,0.1-0.5c0-0.1-0.1-0.1-0.2-0.1c-0.2,0-0.4,0.4-0.6,1l-0.3,0c0.1-0.4,0.3-0.7,0.5-1c0.2-0.3,0.4-0.4,0.6-0.4
				c0.1,0,0.3,0,0.4,0.1c0.1,0.1,0.2,0.2,0.2,0.4c0,0.1,0,0.4-0.1,0.8l-0.4,2.1c-0.1,0.4-0.1,0.7-0.1,0.8c0,0.1,0,0.2,0.1,0.2
				c0.1,0.1,0.1,0.1,0.2,0.1c0.3,0,0.6-0.4,1-1.1s0.7-1.8,0.9-3.1l0.1-0.3l0.6-0.1l-0.6,3.2C36,30.3,36,30.6,36,30.7
				c0,0.1,0,0.2,0.1,0.2c0,0,0.1,0.1,0.2,0C36.5,30.9,36.8,30.6,36.9,29.9z"/>
			<path fill="#010101" d="M39.6,29.6c0,0.3-0.1,0.6-0.3,1c-0.2,0.3-0.6,0.5-1.1,0.5c-0.4,0-0.7,0-0.9-0.1c-0.2-0.1-0.3-0.3-0.3-0.5
				c0-0.1,0-0.2,0.1-0.3c0-0.1,0.1-0.1,0.2-0.1c0.2,0,0.3,0.1,0.3,0.3c0,0,0,0.1,0,0.2c0,0,0,0.1,0,0.1c0,0.1,0.1,0.2,0.2,0.2
				s0.3,0.1,0.4,0c0.2,0,0.4-0.1,0.6-0.3c0.2-0.2,0.3-0.4,0.2-0.7c0-0.2-0.2-0.6-0.5-1.1c-0.4-0.5-0.6-0.9-0.6-1.2
				c0-0.3,0.1-0.6,0.3-0.9c0.2-0.3,0.5-0.4,0.9-0.5c0.3,0,0.5,0,0.7,0.1c0.2,0.1,0.3,0.2,0.3,0.4c0,0.2,0,0.3-0.2,0.3
				c-0.1,0-0.2-0.1-0.3-0.3c-0.1-0.2-0.3-0.3-0.5-0.3c-0.2,0-0.4,0.1-0.5,0.2c-0.1,0.1-0.2,0.3-0.2,0.5c0,0.2,0.2,0.6,0.5,1
				c0.3,0.4,0.5,0.6,0.6,0.8C39.5,29.1,39.6,29.3,39.6,29.6z"/>
		</g>
		<path fill="#010101" d="M5.6,11.4c0,0,6.8,6.2,7.7,5.1C13.2,16.5,14.5,15.4,5.6,11.4z"/>
		<path fill="#010101" d="M18.6,2.6c0,0,1.7,9.1,3,8.7C21.6,11.3,23.4,11.1,18.6,2.6z"/>
		<path fill="#010101" d="M33.5,1.1c0,0-3.6,8.5-2.2,8.9C31.3,10.1,32.8,10.9,33.5,1.1z"/>
		<path fill="#010101" d="M46.5,4.6c0,0-7.3,5.6-6.4,6.7C40.2,11.3,41.1,12.8,46.5,4.6z"/>
	</g>
</g>
<g id="rays">
	<path fill="#010101" d="M56.6,17.8c0,0-9.2,0-9.1,1.4C47.5,19.2,47.3,20.9,56.6,17.8z"/>
	<path fill="#010101" d="M1,25c0,0,9.1,1.4,9.2,0C10.2,25,10.6,23.3,1,25z"/>
</g>
</svg>
