<?xml version="1.0" encoding="UTF-8" standalone="no"?>
<!-- Created with Inkscape (http://www.inkscape.org/) -->

<svg
   xmlns:dc="http://purl.org/dc/elements/1.1/"
   xmlns:cc="http://creativecommons.org/ns#"
   xmlns:rdf="http://www.w3.org/1999/02/22-rdf-syntax-ns#"
   xmlns:svg="http://www.w3.org/2000/svg"
   xmlns="http://www.w3.org/2000/svg"
   xmlns:sodipodi="http://sodipodi.sourceforge.net/DTD/sodipodi-0.dtd"
   xmlns:inkscape="http://www.inkscape.org/namespaces/inkscape"
   width="156"
   height="63"
   id="svg7710"
   version="1.1"
   inkscape:version="0.48.4 r9939"
   sodipodi:docname="New document 2">
  <defs
     id="defs7712" />
  <sodipodi:namedview
     id="base"
     pagecolor="#ffffff"
     bordercolor="#666666"
     borderopacity="1.0"
     inkscape:pageopacity="0.0"
     inkscape:pageshadow="2"
     inkscape:zoom="0.98994949"
     inkscape:cx="166.16539"
     inkscape:cy="360.00444"
     inkscape:document-units="px"
     inkscape:current-layer="layer1"
     showgrid="false"
     inkscape:window-width="1920"
     inkscape:window-height="1025"
     inkscape:window-x="-3"
     inkscape:window-y="-3"
     inkscape:window-maximized="1" />
  <metadata
     id="metadata7715">
    <rdf:RDF>
      <cc:Work
         rdf:about="">
        <dc:format>image/svg+xml</dc:format>
        <dc:type
           rdf:resource="http://purl.org/dc/dcmitype/StillImage" />
        <dc:title></dc:title>
      </cc:Work>
    </rdf:RDF>
  </metadata>
  <g
     inkscape:label="Layer 1"
     inkscape:groupmode="layer"
     id="layer1"
     transform="translate(0,-989.36212)">
    <g
       transform="matrix(0.84949116,0,0,0.84948646,1786.6793,4422.107)"
       id="My_Schedule_-_ON">
      <path
         stroke-miterlimit="10"
         d="m -2032.813,-4031.794 c -1.25,-2.765 -3.623,-4.911 -6.539,-5.859 -1.058,-0.343 -2.186,-0.532 -3.359,-0.532 h -48.746 c -5.999,0 -10.859,4.861 -10.859,10.859 v 48.746 c 0,5.998 4.86,10.859 10.859,10.859 h 48.746 c 5.998,0 10.86,-4.861 10.86,-10.859 v -48.746 c 0,-1.594 -0.345,-3.106 -0.962,-4.468 z"
         id="path4232"
         inkscape:connector-curvature="0"
         style="fill:#cc3232;stroke:#f0f0f0;stroke-width:1.83739996;stroke-miterlimit:10" />
      <g
         id="g4234">
        <path
           stroke-miterlimit="10"
           d="m -2024.032,-4021.351 -39.915,39.915 -22.463,-22.47 v 0 c -3.041,-3.043 -3.044,-7.972 0,-11.011 3.036,-3.043 7.967,-3.043 11.01,0 l 11.454,11.457 28.905,-28.902 c 3.04,-3.039 7.97,-3.039 11.01,0 3.04,3.038 3.04,7.967 -10e-4,11.01 z"
           id="path4236"
           inkscape:connector-curvature="0"
           style="fill:#f0f0f0;stroke:#cc3232;stroke-width:1.83739996;stroke-miterlimit:10" />
      </g>
    </g>
    <g
       transform="matrix(0.84783741,0,0,0.84783741,2.9886874,4415.4966)"
       id="My_Schedule_-_OFF_3_">
      <path
         stroke-miterlimit="10"
         d="m 167.232,-4031.794 c -1.25,-2.765 -3.624,-4.911 -6.539,-5.859 -1.058,-0.343 -2.187,-0.532 -3.359,-0.532 h -48.745 c -5.999,0 -10.859,4.861 -10.859,10.859 v 48.746 c 0,5.998 4.86,10.859 10.859,10.859 h 48.745 c 5.998,0 10.86,-4.861 10.86,-10.859 v -48.746 c 0,-1.594 -0.346,-3.106 -0.962,-4.468 z"
         id="path3953"
         inkscape:connector-curvature="0"
         style="fill:#f0f0f0;stroke:#333333;stroke-width:2;stroke-miterlimit:10" />
      <g
         id="g3955">
        <path
           stroke-miterlimit="10"
           d="m 176.013,-4021.351 -39.915,39.915 -22.463,-22.47 v 0 c -3.041,-3.043 -3.044,-7.972 0,-11.011 3.036,-3.043 7.967,-3.043 11.01,0 l 11.453,11.457 28.905,-28.902 c 3.039,-3.039 7.97,-3.039 11.01,0 3.04,3.038 3.04,7.967 0,11.01 z"
           id="path3957"
           inkscape:connector-curvature="0"
           style="fill:#f0f0f0;stroke:#333333;stroke-width:2;stroke-miterlimit:10" />
      </g>
    </g>
  </g>
</svg>
