<?xml version="1.0" encoding="UTF-8" standalone="no"?>
<!-- Created with Inkscape (http://www.inkscape.org/) -->

<svg
   xmlns:dc="http://purl.org/dc/elements/1.1/"
   xmlns:cc="http://creativecommons.org/ns#"
   xmlns:rdf="http://www.w3.org/1999/02/22-rdf-syntax-ns#"
   xmlns:svg="http://www.w3.org/2000/svg"
   xmlns="http://www.w3.org/2000/svg"
   xmlns:sodipodi="http://sodipodi.sourceforge.net/DTD/sodipodi-0.dtd"
   xmlns:inkscape="http://www.inkscape.org/namespaces/inkscape"
   width="156"
   height="69"
   id="svg8239"
   version="1.1"
   inkscape:version="0.48.4 r9939"
   sodipodi:docname="New document 16">
  <defs
     id="defs8241" />
  <sodipodi:namedview
     id="base"
     pagecolor="#ffffff"
     bordercolor="#666666"
     borderopacity="1.0"
     inkscape:pageopacity="0.0"
     inkscape:pageshadow="2"
     inkscape:zoom="2.8"
     inkscape:cx="82.133916"
     inkscape:cy="21.524995"
     inkscape:document-units="px"
     inkscape:current-layer="layer1"
     showgrid="false"
     inkscape:window-width="1920"
     inkscape:window-height="1025"
     inkscape:window-x="-3"
     inkscape:window-y="-3"
     inkscape:window-maximized="1" />
  <metadata
     id="metadata8244">
    <rdf:RDF>
      <cc:Work
         rdf:about="">
        <dc:format>image/svg+xml</dc:format>
        <dc:type
           rdf:resource="http://purl.org/dc/dcmitype/StillImage" />
        <dc:title></dc:title>
      </cc:Work>
    </rdf:RDF>
  </metadata>
  <g
     inkscape:label="Layer 1"
     inkscape:groupmode="layer"
     id="layer1"
     transform="translate(0,-983.36218)">
    <g
       transform="matrix(0.73725734,0,0,0.73725734,-579.83243,3970.4352)"
       id="Offers_-_OFF_3_">
      <g
         id="g3901">
        <path
           stroke-miterlimit="10"
           d="m 995.848,-4041.554 c 0.006,-2.095 -0.602,-4.112 -2.061,-5.569 -0.297,-0.298 -0.623,-0.551 -0.963,-0.781 -1.303,-0.879 -2.883,-1.271 -4.52,-1.278 -0.029,0 -0.059,0 -0.088,0 -0.422,0 -0.854,0.037 -1.291,0.083 -5.314,0.563 -11.674,4.188 -17.422,9.884 -6.166,6.216 -9.91,13.16 -9.969,18.713 -0.008,2.098 0.604,4.113 2.061,5.568 0.922,0.924 2.068,1.504 3.318,1.807 -0.008,0.01 -0.014,0.015 -0.021,0.022 -2.217,2.218 -5.814,2.218 -8.031,0 -2.115,-2.113 -2.211,-5.472 -0.299,-7.705 0.113,-3.877 2.096,-8.576 5.488,-13.35 l -2.174,-2.174 -13.803,0.228 -42.242,42.242 c -1.605,1.605 -1.605,4.234 0,5.838 l 27.949,27.948 c 1.604,1.605 4.232,1.605 5.838,0 l 42.242,-42.242 1.471,-12.56 -2.326,-2.326 c 2.32,-1.531 4.643,-3.423 6.873,-5.634 l -1.219,-1.22 1.219,1.217 c 6.161,-6.218 9.911,-13.156 9.97,-18.709 z m -29.346,25.18 c -1.115,-0.107 -1.918,-0.454 -2.465,-1 -0.652,-0.653 -1.043,-1.642 -1.051,-3.129 -0.008,-0.553 0.057,-1.166 0.178,-1.815 0.627,0.276 1.217,0.666 1.729,1.178 1.3,1.3 1.832,3.075 1.609,4.766 z m 16.937,-8.908 v -10e-4 c -2.242,2.264 -4.627,4.135 -6.934,5.575 l -10.137,-10.134 c 1.441,-2.309 3.311,-4.692 5.576,-6.934 5.656,-5.71 12.219,-8.956 16.166,-8.956 0.035,0 0.07,0 0.105,0 1.49,0.01 2.473,0.395 3.129,1.051 0.652,0.653 1.043,1.639 1.049,3.128 0.062,3.934 -3.194,10.562 -8.954,16.271 z"
           id="path3903"
           inkscape:connector-curvature="0"
           style="fill:#f0f0f0;stroke:#333333;stroke-width:1.72570002;stroke-miterlimit:10" />
      </g>
      <path
         stroke-miterlimit="10"
         d="m 939.814,-3995.772 c 1.109,1.454 1.324,2.425 1.316,3.003 -0.016,0.576 -0.215,0.974 -0.631,1.452 -0.236,0.268 -0.578,0.489 -0.578,0.489 -0.244,0.163 -0.514,0.303 -0.77,0.416 -1.201,0.467 -2.619,0.241 -3.623,-0.704 -1.381,-1.31 -1.439,-3.492 -0.137,-4.875 l -3.896,-3.685 c -2.73,2.882 -3.131,7.118 -1.271,10.4 l -1.959,2.077 3.756,3.549 1.963,-2.072 c 1.535,0.762 3.24,1.046 4.9,0.862 0.977,-0.077 2.209,-0.538 2.209,-0.538 0.826,-0.324 1.615,-0.774 2.334,-1.353 0.395,-0.267 0.971,-0.878 0.971,-0.878 1.164,-1.212 2.088,-2.996 2.102,-5.075 0.027,-2.082 -0.803,-4.234 -2.42,-6.335 -1.488,-1.959 -1.625,-3.119 -1.59,-3.772 0.045,-0.687 0.713,-1.435 0.713,-1.435 1.309,-1.381 3.488,-1.444 4.875,-0.136 1.381,1.31 1.441,3.491 0.139,4.874 l 3.898,3.691 c 2.729,-2.889 3.129,-7.131 1.262,-10.415 l 2.166,-2.292 -3.754,-3.55 -2.17,2.292 c -2.98,-1.476 -6.605,-1.155 -9.291,0.917 -0.244,0.172 -0.646,0.479 -1.098,0.96 -0.85,0.885 -1.928,2.473 -2.094,4.694 -0.173,2.224 0.634,4.79 2.678,7.439 z"
         id="path3905"
         inkscape:connector-curvature="0"
         style="fill:#f0f0f0;stroke:#333333;stroke-width:1.72570002;stroke-miterlimit:10" />
    </g>
    <g
       transform="matrix(0.75091286,0,0,0.75091286,-2334.7797,-345.08647)"
       id="Offers_-_ON_15_">
      <g
         id="g733">
        <path
           d="m 3202.475,1778.319 c 0.01,-2.095 -0.602,-4.11 -2.061,-5.567 -0.297,-0.3 -0.623,-0.552 -0.963,-0.782 -1.303,-0.879 -2.885,-1.271 -4.521,-1.277 -0.029,0 -0.057,0 -0.086,0 -0.422,0 -0.854,0.037 -1.291,0.082 -5.314,0.564 -11.676,4.188 -17.422,9.885 -6.166,6.218 -9.91,13.16 -9.969,18.713 -0.01,2.098 0.604,4.113 2.061,5.568 0.922,0.924 2.066,1.504 3.318,1.807 -0.01,0.01 -0.014,0.016 -0.021,0.021 -2.219,2.219 -5.814,2.219 -8.031,0 -2.115,-2.112 -2.211,-5.472 -0.299,-7.705 0.113,-3.877 2.096,-8.575 5.488,-13.35 l -2.174,-2.174 -13.803,0.229 -42.242,42.241 c -1.605,1.604 -1.605,4.234 0,5.839 l 27.947,27.947 c 1.605,1.605 4.232,1.605 5.84,0 l 42.242,-42.242 1.469,-12.56 -2.324,-2.324 c 2.318,-1.532 4.643,-3.425 6.873,-5.636 l -1.221,-1.219 1.221,1.216 c 6.158,-6.217 9.91,-13.157 9.969,-18.71 z m -29.346,25.181 c -1.117,-0.106 -1.918,-0.454 -2.467,-1 -0.65,-0.654 -1.041,-1.643 -1.049,-3.13 -0.01,-0.553 0.057,-1.166 0.176,-1.815 0.627,0.276 1.219,0.665 1.73,1.179 1.301,1.3 1.833,3.074 1.61,4.766 z m 16.937,-8.909 0,0 c -2.244,2.264 -4.627,4.134 -6.936,5.575 l -10.135,-10.136 c 1.441,-2.309 3.311,-4.691 5.576,-6.934 5.656,-5.709 12.219,-8.955 16.166,-8.955 0.035,0 0.07,0 0.105,0 1.488,0.01 2.473,0.395 3.129,1.051 0.652,0.652 1.043,1.639 1.049,3.127 0.06,3.936 -3.194,10.564 -8.954,16.272 z"
           id="path735"
           inkscape:connector-curvature="0"
           style="fill:#cc3333" />
      </g>
      <path
         d="m 3146.441,1824.101 c 1.109,1.455 1.324,2.426 1.316,3.004 -0.016,0.576 -0.215,0.974 -0.631,1.452 -0.236,0.269 -0.578,0.489 -0.578,0.489 -0.244,0.163 -0.514,0.303 -0.771,0.416 -1.199,0.467 -2.617,0.24 -3.621,-0.705 -1.381,-1.309 -1.439,-3.492 -0.137,-4.875 l -3.896,-3.686 c -2.73,2.883 -3.131,7.119 -1.271,10.4 l -1.959,2.077 3.756,3.55 1.961,-2.072 c 1.535,0.762 3.242,1.047 4.902,0.862 0.977,-0.077 2.209,-0.538 2.209,-0.538 0.826,-0.324 1.615,-0.773 2.334,-1.354 0.395,-0.266 0.971,-0.877 0.971,-0.877 1.164,-1.213 2.086,-2.995 2.102,-5.076 0.027,-2.081 -0.805,-4.234 -2.42,-6.333 -1.488,-1.959 -1.625,-3.12 -1.59,-3.774 0.043,-0.685 0.713,-1.435 0.713,-1.435 1.309,-1.382 3.488,-1.444 4.875,-0.136 1.381,1.31 1.441,3.49 0.139,4.873 l 3.898,3.691 c 2.729,-2.888 3.129,-7.131 1.262,-10.415 l 2.166,-2.292 -3.754,-3.55 -2.17,2.292 c -2.982,-1.476 -6.605,-1.154 -9.293,0.916 -0.244,0.172 -0.645,0.479 -1.096,0.961 -0.85,0.885 -1.928,2.473 -2.096,4.694 -0.172,2.227 0.634,4.792 2.679,7.441 z"
         id="path737"
         inkscape:connector-curvature="0"
         style="fill:#f0f0f0" />
    </g>
  </g>
</svg>
